<mxfile host="app.diagrams.net" modified="2023-10-16T16:36:57.871Z" agent="Mozilla/5.0 (Windows NT 10.0; Win64; x64) AppleWebKit/537.36 (KHTML, like Gecko) Chrome/118.0.0.0 Safari/537.36" etag="Oyn5P-24ywuPTCNlwQ38" version="22.0.4" type="device">
  <diagram name="Page-1" id="T27F__u3b6T-stxlarzL">
    <mxGraphModel dx="1235" dy="779" grid="1" gridSize="10" guides="1" tooltips="1" connect="1" arrows="1" fold="1" page="1" pageScale="1" pageWidth="827" pageHeight="1169" math="0" shadow="0">
      <root>
        <mxCell id="0" />
        <mxCell id="1" parent="0" />
        <mxCell id="s0hgZ2dum6h8LIPwgXTJ-103" value="" style="childLayout=tableLayout;recursiveResize=0;shadow=0;fillColor=none;" parent="1" vertex="1">
          <mxGeometry x="360" y="320" width="180" height="140" as="geometry" />
        </mxCell>
        <mxCell id="s0hgZ2dum6h8LIPwgXTJ-104" value="" style="shape=tableRow;horizontal=0;startSize=0;swimlaneHead=0;swimlaneBody=0;top=0;left=0;bottom=0;right=0;dropTarget=0;collapsible=0;recursiveResize=0;expand=0;fontStyle=0;fillColor=none;strokeColor=inherit;" parent="s0hgZ2dum6h8LIPwgXTJ-103" vertex="1">
          <mxGeometry width="180" height="47" as="geometry" />
        </mxCell>
        <mxCell id="s0hgZ2dum6h8LIPwgXTJ-105" value="&lt;u&gt;portfolioId&lt;/u&gt;" style="connectable=0;recursiveResize=0;strokeColor=inherit;fillColor=none;align=center;whiteSpace=wrap;html=1;" parent="s0hgZ2dum6h8LIPwgXTJ-104" vertex="1">
          <mxGeometry width="60" height="47" as="geometry">
            <mxRectangle width="60" height="47" as="alternateBounds" />
          </mxGeometry>
        </mxCell>
        <mxCell id="s0hgZ2dum6h8LIPwgXTJ-106" value="creationDate" style="connectable=0;recursiveResize=0;strokeColor=inherit;fillColor=none;align=center;whiteSpace=wrap;html=1;" parent="s0hgZ2dum6h8LIPwgXTJ-104" vertex="1">
          <mxGeometry x="60" width="70" height="47" as="geometry">
            <mxRectangle width="70" height="47" as="alternateBounds" />
          </mxGeometry>
        </mxCell>
        <mxCell id="s0hgZ2dum6h8LIPwgXTJ-107" value="userId" style="connectable=0;recursiveResize=0;strokeColor=inherit;fillColor=none;align=center;whiteSpace=wrap;html=1;" parent="s0hgZ2dum6h8LIPwgXTJ-104" vertex="1">
          <mxGeometry x="130" width="50" height="47" as="geometry">
            <mxRectangle width="50" height="47" as="alternateBounds" />
          </mxGeometry>
        </mxCell>
        <mxCell id="s0hgZ2dum6h8LIPwgXTJ-108" style="shape=tableRow;horizontal=0;startSize=0;swimlaneHead=0;swimlaneBody=0;top=0;left=0;bottom=0;right=0;dropTarget=0;collapsible=0;recursiveResize=0;expand=0;fontStyle=0;fillColor=none;strokeColor=inherit;" parent="s0hgZ2dum6h8LIPwgXTJ-103" vertex="1">
          <mxGeometry y="47" width="180" height="46" as="geometry" />
        </mxCell>
        <mxCell id="s0hgZ2dum6h8LIPwgXTJ-109" value="" style="connectable=0;recursiveResize=0;strokeColor=inherit;fillColor=none;align=center;whiteSpace=wrap;html=1;" parent="s0hgZ2dum6h8LIPwgXTJ-108" vertex="1">
          <mxGeometry width="60" height="46" as="geometry">
            <mxRectangle width="60" height="46" as="alternateBounds" />
          </mxGeometry>
        </mxCell>
        <mxCell id="s0hgZ2dum6h8LIPwgXTJ-110" value="" style="connectable=0;recursiveResize=0;strokeColor=inherit;fillColor=none;align=center;whiteSpace=wrap;html=1;" parent="s0hgZ2dum6h8LIPwgXTJ-108" vertex="1">
          <mxGeometry x="60" width="70" height="46" as="geometry">
            <mxRectangle width="70" height="46" as="alternateBounds" />
          </mxGeometry>
        </mxCell>
        <mxCell id="s0hgZ2dum6h8LIPwgXTJ-111" value="" style="connectable=0;recursiveResize=0;strokeColor=inherit;fillColor=none;align=center;whiteSpace=wrap;html=1;" parent="s0hgZ2dum6h8LIPwgXTJ-108" vertex="1">
          <mxGeometry x="130" width="50" height="46" as="geometry">
            <mxRectangle width="50" height="46" as="alternateBounds" />
          </mxGeometry>
        </mxCell>
        <mxCell id="s0hgZ2dum6h8LIPwgXTJ-112" style="shape=tableRow;horizontal=0;startSize=0;swimlaneHead=0;swimlaneBody=0;top=0;left=0;bottom=0;right=0;dropTarget=0;collapsible=0;recursiveResize=0;expand=0;fontStyle=0;fillColor=none;strokeColor=inherit;" parent="s0hgZ2dum6h8LIPwgXTJ-103" vertex="1">
          <mxGeometry y="93" width="180" height="47" as="geometry" />
        </mxCell>
        <mxCell id="s0hgZ2dum6h8LIPwgXTJ-113" value="" style="connectable=0;recursiveResize=0;strokeColor=inherit;fillColor=none;align=center;whiteSpace=wrap;html=1;" parent="s0hgZ2dum6h8LIPwgXTJ-112" vertex="1">
          <mxGeometry width="60" height="47" as="geometry">
            <mxRectangle width="60" height="47" as="alternateBounds" />
          </mxGeometry>
        </mxCell>
        <mxCell id="s0hgZ2dum6h8LIPwgXTJ-114" value="" style="connectable=0;recursiveResize=0;strokeColor=inherit;fillColor=none;align=center;whiteSpace=wrap;html=1;" parent="s0hgZ2dum6h8LIPwgXTJ-112" vertex="1">
          <mxGeometry x="60" width="70" height="47" as="geometry">
            <mxRectangle width="70" height="47" as="alternateBounds" />
          </mxGeometry>
        </mxCell>
        <mxCell id="s0hgZ2dum6h8LIPwgXTJ-115" value="" style="connectable=0;recursiveResize=0;strokeColor=inherit;fillColor=none;align=center;whiteSpace=wrap;html=1;" parent="s0hgZ2dum6h8LIPwgXTJ-112" vertex="1">
          <mxGeometry x="130" width="50" height="47" as="geometry">
            <mxRectangle width="50" height="47" as="alternateBounds" />
          </mxGeometry>
        </mxCell>
        <mxCell id="s0hgZ2dum6h8LIPwgXTJ-132" value="quantity" style="connectable=0;recursiveResize=0;strokeColor=inherit;fillColor=none;align=center;whiteSpace=wrap;html=1;" parent="1" vertex="1">
          <mxGeometry x="860" y="320" width="60" height="47" as="geometry">
            <mxRectangle width="60" height="47" as="alternateBounds" />
          </mxGeometry>
        </mxCell>
        <mxCell id="s0hgZ2dum6h8LIPwgXTJ-133" value="" style="connectable=0;recursiveResize=0;strokeColor=inherit;fillColor=none;align=center;whiteSpace=wrap;html=1;" parent="1" vertex="1">
          <mxGeometry x="860" y="366" width="60" height="47" as="geometry">
            <mxRectangle width="60" height="47" as="alternateBounds" />
          </mxGeometry>
        </mxCell>
        <mxCell id="s0hgZ2dum6h8LIPwgXTJ-134" value="" style="connectable=0;recursiveResize=0;strokeColor=inherit;fillColor=none;align=center;whiteSpace=wrap;html=1;" parent="1" vertex="1">
          <mxGeometry x="860" y="413.5" width="60" height="47" as="geometry">
            <mxRectangle width="60" height="47" as="alternateBounds" />
          </mxGeometry>
        </mxCell>
        <mxCell id="s0hgZ2dum6h8LIPwgXTJ-119" value="" style="childLayout=tableLayout;recursiveResize=0;shadow=0;fillColor=none;" parent="1" vertex="1">
          <mxGeometry x="680" y="320" width="180" height="140" as="geometry" />
        </mxCell>
        <mxCell id="s0hgZ2dum6h8LIPwgXTJ-120" value="" style="shape=tableRow;horizontal=0;startSize=0;swimlaneHead=0;swimlaneBody=0;top=0;left=0;bottom=0;right=0;dropTarget=0;collapsible=0;recursiveResize=0;expand=0;fontStyle=0;fillColor=none;strokeColor=inherit;" parent="s0hgZ2dum6h8LIPwgXTJ-119" vertex="1">
          <mxGeometry width="180" height="47" as="geometry" />
        </mxCell>
        <mxCell id="s0hgZ2dum6h8LIPwgXTJ-121" value="&lt;u&gt;tradeId&lt;/u&gt;" style="connectable=0;recursiveResize=0;strokeColor=inherit;fillColor=none;align=center;whiteSpace=wrap;html=1;" parent="s0hgZ2dum6h8LIPwgXTJ-120" vertex="1">
          <mxGeometry width="60" height="47" as="geometry">
            <mxRectangle width="60" height="47" as="alternateBounds" />
          </mxGeometry>
        </mxCell>
        <mxCell id="s0hgZ2dum6h8LIPwgXTJ-122" value="timestamp" style="connectable=0;recursiveResize=0;strokeColor=inherit;fillColor=none;align=center;whiteSpace=wrap;html=1;" parent="s0hgZ2dum6h8LIPwgXTJ-120" vertex="1">
          <mxGeometry x="60" width="60" height="47" as="geometry">
            <mxRectangle width="60" height="47" as="alternateBounds" />
          </mxGeometry>
        </mxCell>
        <mxCell id="s0hgZ2dum6h8LIPwgXTJ-123" value="price" style="connectable=0;recursiveResize=0;strokeColor=inherit;fillColor=none;align=center;whiteSpace=wrap;html=1;" parent="s0hgZ2dum6h8LIPwgXTJ-120" vertex="1">
          <mxGeometry x="120" width="60" height="47" as="geometry">
            <mxRectangle width="60" height="47" as="alternateBounds" />
          </mxGeometry>
        </mxCell>
        <mxCell id="s0hgZ2dum6h8LIPwgXTJ-124" style="shape=tableRow;horizontal=0;startSize=0;swimlaneHead=0;swimlaneBody=0;top=0;left=0;bottom=0;right=0;dropTarget=0;collapsible=0;recursiveResize=0;expand=0;fontStyle=0;fillColor=none;strokeColor=inherit;" parent="s0hgZ2dum6h8LIPwgXTJ-119" vertex="1">
          <mxGeometry y="47" width="180" height="46" as="geometry" />
        </mxCell>
        <mxCell id="s0hgZ2dum6h8LIPwgXTJ-125" value="" style="connectable=0;recursiveResize=0;strokeColor=inherit;fillColor=none;align=center;whiteSpace=wrap;html=1;" parent="s0hgZ2dum6h8LIPwgXTJ-124" vertex="1">
          <mxGeometry width="60" height="46" as="geometry">
            <mxRectangle width="60" height="46" as="alternateBounds" />
          </mxGeometry>
        </mxCell>
        <mxCell id="s0hgZ2dum6h8LIPwgXTJ-126" value="" style="connectable=0;recursiveResize=0;strokeColor=inherit;fillColor=none;align=center;whiteSpace=wrap;html=1;" parent="s0hgZ2dum6h8LIPwgXTJ-124" vertex="1">
          <mxGeometry x="60" width="60" height="46" as="geometry">
            <mxRectangle width="60" height="46" as="alternateBounds" />
          </mxGeometry>
        </mxCell>
        <mxCell id="s0hgZ2dum6h8LIPwgXTJ-127" value="" style="connectable=0;recursiveResize=0;strokeColor=inherit;fillColor=none;align=center;whiteSpace=wrap;html=1;" parent="s0hgZ2dum6h8LIPwgXTJ-124" vertex="1">
          <mxGeometry x="120" width="60" height="46" as="geometry">
            <mxRectangle width="60" height="46" as="alternateBounds" />
          </mxGeometry>
        </mxCell>
        <mxCell id="s0hgZ2dum6h8LIPwgXTJ-128" style="shape=tableRow;horizontal=0;startSize=0;swimlaneHead=0;swimlaneBody=0;top=0;left=0;bottom=0;right=0;dropTarget=0;collapsible=0;recursiveResize=0;expand=0;fontStyle=0;fillColor=none;strokeColor=inherit;" parent="s0hgZ2dum6h8LIPwgXTJ-119" vertex="1">
          <mxGeometry y="93" width="180" height="47" as="geometry" />
        </mxCell>
        <mxCell id="s0hgZ2dum6h8LIPwgXTJ-129" value="" style="connectable=0;recursiveResize=0;strokeColor=inherit;fillColor=none;align=center;whiteSpace=wrap;html=1;" parent="s0hgZ2dum6h8LIPwgXTJ-128" vertex="1">
          <mxGeometry width="60" height="47" as="geometry">
            <mxRectangle width="60" height="47" as="alternateBounds" />
          </mxGeometry>
        </mxCell>
        <mxCell id="s0hgZ2dum6h8LIPwgXTJ-130" value="" style="connectable=0;recursiveResize=0;strokeColor=inherit;fillColor=none;align=center;whiteSpace=wrap;html=1;" parent="s0hgZ2dum6h8LIPwgXTJ-128" vertex="1">
          <mxGeometry x="60" width="60" height="47" as="geometry">
            <mxRectangle width="60" height="47" as="alternateBounds" />
          </mxGeometry>
        </mxCell>
        <mxCell id="s0hgZ2dum6h8LIPwgXTJ-131" value="" style="connectable=0;recursiveResize=0;strokeColor=inherit;fillColor=none;align=center;whiteSpace=wrap;html=1;" parent="s0hgZ2dum6h8LIPwgXTJ-128" vertex="1">
          <mxGeometry x="120" width="60" height="47" as="geometry">
            <mxRectangle width="60" height="47" as="alternateBounds" />
          </mxGeometry>
        </mxCell>
        <mxCell id="s0hgZ2dum6h8LIPwgXTJ-144" value="" style="childLayout=tableLayout;recursiveResize=0;shadow=0;fillColor=none;" parent="1" vertex="1">
          <mxGeometry x="40" y="80" width="180" height="140" as="geometry" />
        </mxCell>
        <mxCell id="s0hgZ2dum6h8LIPwgXTJ-145" value="" style="shape=tableRow;horizontal=0;startSize=0;swimlaneHead=0;swimlaneBody=0;top=0;left=0;bottom=0;right=0;dropTarget=0;collapsible=0;recursiveResize=0;expand=0;fontStyle=0;fillColor=none;strokeColor=inherit;" parent="s0hgZ2dum6h8LIPwgXTJ-144" vertex="1">
          <mxGeometry width="180" height="47" as="geometry" />
        </mxCell>
        <mxCell id="s0hgZ2dum6h8LIPwgXTJ-146" value="&lt;u&gt;userId&lt;/u&gt;" style="connectable=0;recursiveResize=0;strokeColor=inherit;fillColor=none;align=center;whiteSpace=wrap;html=1;" parent="s0hgZ2dum6h8LIPwgXTJ-145" vertex="1">
          <mxGeometry width="60" height="47" as="geometry">
            <mxRectangle width="60" height="47" as="alternateBounds" />
          </mxGeometry>
        </mxCell>
        <mxCell id="s0hgZ2dum6h8LIPwgXTJ-147" value="username" style="connectable=0;recursiveResize=0;strokeColor=inherit;fillColor=none;align=center;whiteSpace=wrap;html=1;" parent="s0hgZ2dum6h8LIPwgXTJ-145" vertex="1">
          <mxGeometry x="60" width="60" height="47" as="geometry">
            <mxRectangle width="60" height="47" as="alternateBounds" />
          </mxGeometry>
        </mxCell>
        <mxCell id="s0hgZ2dum6h8LIPwgXTJ-148" value="password" style="connectable=0;recursiveResize=0;strokeColor=inherit;fillColor=none;align=center;whiteSpace=wrap;html=1;" parent="s0hgZ2dum6h8LIPwgXTJ-145" vertex="1">
          <mxGeometry x="120" width="60" height="47" as="geometry">
            <mxRectangle width="60" height="47" as="alternateBounds" />
          </mxGeometry>
        </mxCell>
        <mxCell id="s0hgZ2dum6h8LIPwgXTJ-149" style="shape=tableRow;horizontal=0;startSize=0;swimlaneHead=0;swimlaneBody=0;top=0;left=0;bottom=0;right=0;dropTarget=0;collapsible=0;recursiveResize=0;expand=0;fontStyle=0;fillColor=none;strokeColor=inherit;" parent="s0hgZ2dum6h8LIPwgXTJ-144" vertex="1">
          <mxGeometry y="47" width="180" height="46" as="geometry" />
        </mxCell>
        <mxCell id="s0hgZ2dum6h8LIPwgXTJ-150" value="" style="connectable=0;recursiveResize=0;strokeColor=inherit;fillColor=none;align=center;whiteSpace=wrap;html=1;" parent="s0hgZ2dum6h8LIPwgXTJ-149" vertex="1">
          <mxGeometry width="60" height="46" as="geometry">
            <mxRectangle width="60" height="46" as="alternateBounds" />
          </mxGeometry>
        </mxCell>
        <mxCell id="s0hgZ2dum6h8LIPwgXTJ-151" value="" style="connectable=0;recursiveResize=0;strokeColor=inherit;fillColor=none;align=center;whiteSpace=wrap;html=1;" parent="s0hgZ2dum6h8LIPwgXTJ-149" vertex="1">
          <mxGeometry x="60" width="60" height="46" as="geometry">
            <mxRectangle width="60" height="46" as="alternateBounds" />
          </mxGeometry>
        </mxCell>
        <mxCell id="s0hgZ2dum6h8LIPwgXTJ-152" value="" style="connectable=0;recursiveResize=0;strokeColor=inherit;fillColor=none;align=center;whiteSpace=wrap;html=1;" parent="s0hgZ2dum6h8LIPwgXTJ-149" vertex="1">
          <mxGeometry x="120" width="60" height="46" as="geometry">
            <mxRectangle width="60" height="46" as="alternateBounds" />
          </mxGeometry>
        </mxCell>
        <mxCell id="s0hgZ2dum6h8LIPwgXTJ-153" style="shape=tableRow;horizontal=0;startSize=0;swimlaneHead=0;swimlaneBody=0;top=0;left=0;bottom=0;right=0;dropTarget=0;collapsible=0;recursiveResize=0;expand=0;fontStyle=0;fillColor=none;strokeColor=inherit;" parent="s0hgZ2dum6h8LIPwgXTJ-144" vertex="1">
          <mxGeometry y="93" width="180" height="47" as="geometry" />
        </mxCell>
        <mxCell id="s0hgZ2dum6h8LIPwgXTJ-154" value="" style="connectable=0;recursiveResize=0;strokeColor=inherit;fillColor=none;align=center;whiteSpace=wrap;html=1;" parent="s0hgZ2dum6h8LIPwgXTJ-153" vertex="1">
          <mxGeometry width="60" height="47" as="geometry">
            <mxRectangle width="60" height="47" as="alternateBounds" />
          </mxGeometry>
        </mxCell>
        <mxCell id="s0hgZ2dum6h8LIPwgXTJ-155" value="" style="connectable=0;recursiveResize=0;strokeColor=inherit;fillColor=none;align=center;whiteSpace=wrap;html=1;" parent="s0hgZ2dum6h8LIPwgXTJ-153" vertex="1">
          <mxGeometry x="60" width="60" height="47" as="geometry">
            <mxRectangle width="60" height="47" as="alternateBounds" />
          </mxGeometry>
        </mxCell>
        <mxCell id="s0hgZ2dum6h8LIPwgXTJ-156" value="" style="connectable=0;recursiveResize=0;strokeColor=inherit;fillColor=none;align=center;whiteSpace=wrap;html=1;" parent="s0hgZ2dum6h8LIPwgXTJ-153" vertex="1">
          <mxGeometry x="120" width="60" height="47" as="geometry">
            <mxRectangle width="60" height="47" as="alternateBounds" />
          </mxGeometry>
        </mxCell>
        <mxCell id="s0hgZ2dum6h8LIPwgXTJ-157" value="role" style="connectable=0;recursiveResize=0;strokeColor=inherit;fillColor=none;align=center;whiteSpace=wrap;html=1;" parent="1" vertex="1">
          <mxGeometry x="220" y="80" width="60" height="47" as="geometry">
            <mxRectangle width="60" height="47" as="alternateBounds" />
          </mxGeometry>
        </mxCell>
        <mxCell id="s0hgZ2dum6h8LIPwgXTJ-158" value="" style="connectable=0;recursiveResize=0;strokeColor=inherit;fillColor=none;align=center;whiteSpace=wrap;html=1;" parent="1" vertex="1">
          <mxGeometry x="220" y="127" width="60" height="47" as="geometry">
            <mxRectangle width="60" height="47" as="alternateBounds" />
          </mxGeometry>
        </mxCell>
        <mxCell id="s0hgZ2dum6h8LIPwgXTJ-159" value="" style="connectable=0;recursiveResize=0;strokeColor=inherit;fillColor=none;align=center;whiteSpace=wrap;html=1;" parent="1" vertex="1">
          <mxGeometry x="220" y="173" width="60" height="47" as="geometry">
            <mxRectangle width="60" height="47" as="alternateBounds" />
          </mxGeometry>
        </mxCell>
        <mxCell id="s0hgZ2dum6h8LIPwgXTJ-160" value="price" style="connectable=0;recursiveResize=0;strokeColor=inherit;fillColor=none;align=center;whiteSpace=wrap;html=1;" parent="1" vertex="1">
          <mxGeometry x="540" y="80" width="60" height="47" as="geometry">
            <mxRectangle width="60" height="47" as="alternateBounds" />
          </mxGeometry>
        </mxCell>
        <mxCell id="s0hgZ2dum6h8LIPwgXTJ-161" value="" style="connectable=0;recursiveResize=0;strokeColor=inherit;fillColor=none;align=center;whiteSpace=wrap;html=1;" parent="1" vertex="1">
          <mxGeometry x="540" y="127" width="60" height="47" as="geometry">
            <mxRectangle width="60" height="47" as="alternateBounds" />
          </mxGeometry>
        </mxCell>
        <mxCell id="s0hgZ2dum6h8LIPwgXTJ-162" value="" style="connectable=0;recursiveResize=0;strokeColor=inherit;fillColor=none;align=center;whiteSpace=wrap;html=1;" parent="1" vertex="1">
          <mxGeometry x="540" y="173" width="60" height="47" as="geometry">
            <mxRectangle width="60" height="47" as="alternateBounds" />
          </mxGeometry>
        </mxCell>
        <mxCell id="s0hgZ2dum6h8LIPwgXTJ-163" value="" style="childLayout=tableLayout;recursiveResize=0;shadow=0;fillColor=none;" parent="1" vertex="1">
          <mxGeometry x="360" y="80" width="180" height="140" as="geometry" />
        </mxCell>
        <mxCell id="s0hgZ2dum6h8LIPwgXTJ-164" value="" style="shape=tableRow;horizontal=0;startSize=0;swimlaneHead=0;swimlaneBody=0;top=0;left=0;bottom=0;right=0;dropTarget=0;collapsible=0;recursiveResize=0;expand=0;fontStyle=0;fillColor=none;strokeColor=inherit;" parent="s0hgZ2dum6h8LIPwgXTJ-163" vertex="1">
          <mxGeometry width="180" height="47" as="geometry" />
        </mxCell>
        <mxCell id="s0hgZ2dum6h8LIPwgXTJ-165" value="&lt;u&gt;orderId&lt;/u&gt;" style="connectable=0;recursiveResize=0;strokeColor=inherit;fillColor=none;align=center;whiteSpace=wrap;html=1;" parent="s0hgZ2dum6h8LIPwgXTJ-164" vertex="1">
          <mxGeometry width="60" height="47" as="geometry">
            <mxRectangle width="60" height="47" as="alternateBounds" />
          </mxGeometry>
        </mxCell>
        <mxCell id="s0hgZ2dum6h8LIPwgXTJ-166" value="orderType" style="connectable=0;recursiveResize=0;strokeColor=inherit;fillColor=none;align=center;whiteSpace=wrap;html=1;" parent="s0hgZ2dum6h8LIPwgXTJ-164" vertex="1">
          <mxGeometry x="60" width="60" height="47" as="geometry">
            <mxRectangle width="60" height="47" as="alternateBounds" />
          </mxGeometry>
        </mxCell>
        <mxCell id="s0hgZ2dum6h8LIPwgXTJ-167" value="quantity" style="connectable=0;recursiveResize=0;strokeColor=inherit;fillColor=none;align=center;whiteSpace=wrap;html=1;" parent="s0hgZ2dum6h8LIPwgXTJ-164" vertex="1">
          <mxGeometry x="120" width="60" height="47" as="geometry">
            <mxRectangle width="60" height="47" as="alternateBounds" />
          </mxGeometry>
        </mxCell>
        <mxCell id="s0hgZ2dum6h8LIPwgXTJ-168" style="shape=tableRow;horizontal=0;startSize=0;swimlaneHead=0;swimlaneBody=0;top=0;left=0;bottom=0;right=0;dropTarget=0;collapsible=0;recursiveResize=0;expand=0;fontStyle=0;fillColor=none;strokeColor=inherit;" parent="s0hgZ2dum6h8LIPwgXTJ-163" vertex="1">
          <mxGeometry y="47" width="180" height="46" as="geometry" />
        </mxCell>
        <mxCell id="s0hgZ2dum6h8LIPwgXTJ-169" value="" style="connectable=0;recursiveResize=0;strokeColor=inherit;fillColor=none;align=center;whiteSpace=wrap;html=1;" parent="s0hgZ2dum6h8LIPwgXTJ-168" vertex="1">
          <mxGeometry width="60" height="46" as="geometry">
            <mxRectangle width="60" height="46" as="alternateBounds" />
          </mxGeometry>
        </mxCell>
        <mxCell id="s0hgZ2dum6h8LIPwgXTJ-170" value="" style="connectable=0;recursiveResize=0;strokeColor=inherit;fillColor=none;align=center;whiteSpace=wrap;html=1;" parent="s0hgZ2dum6h8LIPwgXTJ-168" vertex="1">
          <mxGeometry x="60" width="60" height="46" as="geometry">
            <mxRectangle width="60" height="46" as="alternateBounds" />
          </mxGeometry>
        </mxCell>
        <mxCell id="s0hgZ2dum6h8LIPwgXTJ-171" value="" style="connectable=0;recursiveResize=0;strokeColor=inherit;fillColor=none;align=center;whiteSpace=wrap;html=1;" parent="s0hgZ2dum6h8LIPwgXTJ-168" vertex="1">
          <mxGeometry x="120" width="60" height="46" as="geometry">
            <mxRectangle width="60" height="46" as="alternateBounds" />
          </mxGeometry>
        </mxCell>
        <mxCell id="s0hgZ2dum6h8LIPwgXTJ-172" style="shape=tableRow;horizontal=0;startSize=0;swimlaneHead=0;swimlaneBody=0;top=0;left=0;bottom=0;right=0;dropTarget=0;collapsible=0;recursiveResize=0;expand=0;fontStyle=0;fillColor=none;strokeColor=inherit;" parent="s0hgZ2dum6h8LIPwgXTJ-163" vertex="1">
          <mxGeometry y="93" width="180" height="47" as="geometry" />
        </mxCell>
        <mxCell id="s0hgZ2dum6h8LIPwgXTJ-173" value="" style="connectable=0;recursiveResize=0;strokeColor=inherit;fillColor=none;align=center;whiteSpace=wrap;html=1;" parent="s0hgZ2dum6h8LIPwgXTJ-172" vertex="1">
          <mxGeometry width="60" height="47" as="geometry">
            <mxRectangle width="60" height="47" as="alternateBounds" />
          </mxGeometry>
        </mxCell>
        <mxCell id="s0hgZ2dum6h8LIPwgXTJ-174" value="" style="connectable=0;recursiveResize=0;strokeColor=inherit;fillColor=none;align=center;whiteSpace=wrap;html=1;" parent="s0hgZ2dum6h8LIPwgXTJ-172" vertex="1">
          <mxGeometry x="60" width="60" height="47" as="geometry">
            <mxRectangle width="60" height="47" as="alternateBounds" />
          </mxGeometry>
        </mxCell>
        <mxCell id="s0hgZ2dum6h8LIPwgXTJ-175" value="" style="connectable=0;recursiveResize=0;strokeColor=inherit;fillColor=none;align=center;whiteSpace=wrap;html=1;" parent="s0hgZ2dum6h8LIPwgXTJ-172" vertex="1">
          <mxGeometry x="120" width="60" height="47" as="geometry">
            <mxRectangle width="60" height="47" as="alternateBounds" />
          </mxGeometry>
        </mxCell>
        <mxCell id="s0hgZ2dum6h8LIPwgXTJ-179" value="" style="childLayout=tableLayout;recursiveResize=0;shadow=0;fillColor=none;" parent="1" vertex="1">
          <mxGeometry x="800" y="80" width="200" height="140" as="geometry" />
        </mxCell>
        <mxCell id="s0hgZ2dum6h8LIPwgXTJ-180" value="" style="shape=tableRow;horizontal=0;startSize=0;swimlaneHead=0;swimlaneBody=0;top=0;left=0;bottom=0;right=0;dropTarget=0;collapsible=0;recursiveResize=0;expand=0;fontStyle=0;fillColor=none;strokeColor=inherit;" parent="s0hgZ2dum6h8LIPwgXTJ-179" vertex="1">
          <mxGeometry width="200" height="47" as="geometry" />
        </mxCell>
        <mxCell id="s0hgZ2dum6h8LIPwgXTJ-181" value="&lt;u&gt;instrumentId&lt;/u&gt;" style="connectable=0;recursiveResize=0;strokeColor=inherit;fillColor=none;align=center;whiteSpace=wrap;html=1;" parent="s0hgZ2dum6h8LIPwgXTJ-180" vertex="1">
          <mxGeometry width="80" height="47" as="geometry">
            <mxRectangle width="80" height="47" as="alternateBounds" />
          </mxGeometry>
        </mxCell>
        <mxCell id="s0hgZ2dum6h8LIPwgXTJ-182" value="symbol" style="connectable=0;recursiveResize=0;strokeColor=inherit;fillColor=none;align=center;whiteSpace=wrap;html=1;" parent="s0hgZ2dum6h8LIPwgXTJ-180" vertex="1">
          <mxGeometry x="80" width="60" height="47" as="geometry">
            <mxRectangle width="60" height="47" as="alternateBounds" />
          </mxGeometry>
        </mxCell>
        <mxCell id="s0hgZ2dum6h8LIPwgXTJ-183" value="asset" style="connectable=0;recursiveResize=0;strokeColor=inherit;fillColor=none;align=center;whiteSpace=wrap;html=1;" parent="s0hgZ2dum6h8LIPwgXTJ-180" vertex="1">
          <mxGeometry x="140" width="60" height="47" as="geometry">
            <mxRectangle width="60" height="47" as="alternateBounds" />
          </mxGeometry>
        </mxCell>
        <mxCell id="s0hgZ2dum6h8LIPwgXTJ-184" style="shape=tableRow;horizontal=0;startSize=0;swimlaneHead=0;swimlaneBody=0;top=0;left=0;bottom=0;right=0;dropTarget=0;collapsible=0;recursiveResize=0;expand=0;fontStyle=0;fillColor=none;strokeColor=inherit;" parent="s0hgZ2dum6h8LIPwgXTJ-179" vertex="1">
          <mxGeometry y="47" width="200" height="46" as="geometry" />
        </mxCell>
        <mxCell id="s0hgZ2dum6h8LIPwgXTJ-185" value="" style="connectable=0;recursiveResize=0;strokeColor=inherit;fillColor=none;align=center;whiteSpace=wrap;html=1;" parent="s0hgZ2dum6h8LIPwgXTJ-184" vertex="1">
          <mxGeometry width="80" height="46" as="geometry">
            <mxRectangle width="80" height="46" as="alternateBounds" />
          </mxGeometry>
        </mxCell>
        <mxCell id="s0hgZ2dum6h8LIPwgXTJ-186" value="" style="connectable=0;recursiveResize=0;strokeColor=inherit;fillColor=none;align=center;whiteSpace=wrap;html=1;" parent="s0hgZ2dum6h8LIPwgXTJ-184" vertex="1">
          <mxGeometry x="80" width="60" height="46" as="geometry">
            <mxRectangle width="60" height="46" as="alternateBounds" />
          </mxGeometry>
        </mxCell>
        <mxCell id="s0hgZ2dum6h8LIPwgXTJ-187" value="" style="connectable=0;recursiveResize=0;strokeColor=inherit;fillColor=none;align=center;whiteSpace=wrap;html=1;" parent="s0hgZ2dum6h8LIPwgXTJ-184" vertex="1">
          <mxGeometry x="140" width="60" height="46" as="geometry">
            <mxRectangle width="60" height="46" as="alternateBounds" />
          </mxGeometry>
        </mxCell>
        <mxCell id="s0hgZ2dum6h8LIPwgXTJ-188" style="shape=tableRow;horizontal=0;startSize=0;swimlaneHead=0;swimlaneBody=0;top=0;left=0;bottom=0;right=0;dropTarget=0;collapsible=0;recursiveResize=0;expand=0;fontStyle=0;fillColor=none;strokeColor=inherit;" parent="s0hgZ2dum6h8LIPwgXTJ-179" vertex="1">
          <mxGeometry y="93" width="200" height="47" as="geometry" />
        </mxCell>
        <mxCell id="s0hgZ2dum6h8LIPwgXTJ-189" value="" style="connectable=0;recursiveResize=0;strokeColor=inherit;fillColor=none;align=center;whiteSpace=wrap;html=1;" parent="s0hgZ2dum6h8LIPwgXTJ-188" vertex="1">
          <mxGeometry width="80" height="47" as="geometry">
            <mxRectangle width="80" height="47" as="alternateBounds" />
          </mxGeometry>
        </mxCell>
        <mxCell id="s0hgZ2dum6h8LIPwgXTJ-190" value="" style="connectable=0;recursiveResize=0;strokeColor=inherit;fillColor=none;align=center;whiteSpace=wrap;html=1;" parent="s0hgZ2dum6h8LIPwgXTJ-188" vertex="1">
          <mxGeometry x="80" width="60" height="47" as="geometry">
            <mxRectangle width="60" height="47" as="alternateBounds" />
          </mxGeometry>
        </mxCell>
        <mxCell id="s0hgZ2dum6h8LIPwgXTJ-191" value="" style="connectable=0;recursiveResize=0;strokeColor=inherit;fillColor=none;align=center;whiteSpace=wrap;html=1;" parent="s0hgZ2dum6h8LIPwgXTJ-188" vertex="1">
          <mxGeometry x="140" width="60" height="47" as="geometry">
            <mxRectangle width="60" height="47" as="alternateBounds" />
          </mxGeometry>
        </mxCell>
        <mxCell id="s0hgZ2dum6h8LIPwgXTJ-192" value="" style="childLayout=tableLayout;recursiveResize=0;shadow=0;fillColor=none;" parent="1" vertex="1">
          <mxGeometry x="40" y="560" width="240" height="140" as="geometry" />
        </mxCell>
        <mxCell id="s0hgZ2dum6h8LIPwgXTJ-193" value="" style="shape=tableRow;horizontal=0;startSize=0;swimlaneHead=0;swimlaneBody=0;top=0;left=0;bottom=0;right=0;dropTarget=0;collapsible=0;recursiveResize=0;expand=0;fontStyle=0;fillColor=none;strokeColor=inherit;" parent="s0hgZ2dum6h8LIPwgXTJ-192" vertex="1">
          <mxGeometry width="240" height="47" as="geometry" />
        </mxCell>
        <mxCell id="s0hgZ2dum6h8LIPwgXTJ-194" value="&lt;u&gt;logId&lt;/u&gt;" style="connectable=0;recursiveResize=0;strokeColor=inherit;fillColor=none;align=center;whiteSpace=wrap;html=1;" parent="s0hgZ2dum6h8LIPwgXTJ-193" vertex="1">
          <mxGeometry width="60" height="47" as="geometry">
            <mxRectangle width="60" height="47" as="alternateBounds" />
          </mxGeometry>
        </mxCell>
        <mxCell id="s0hgZ2dum6h8LIPwgXTJ-195" value="logTimeStamp" style="connectable=0;recursiveResize=0;strokeColor=inherit;fillColor=none;align=center;whiteSpace=wrap;html=1;" parent="s0hgZ2dum6h8LIPwgXTJ-193" vertex="1">
          <mxGeometry x="60" width="80" height="47" as="geometry">
            <mxRectangle width="80" height="47" as="alternateBounds" />
          </mxGeometry>
        </mxCell>
        <mxCell id="s0hgZ2dum6h8LIPwgXTJ-196" value="activityDescription" style="connectable=0;recursiveResize=0;strokeColor=inherit;fillColor=none;align=center;whiteSpace=wrap;html=1;" parent="s0hgZ2dum6h8LIPwgXTJ-193" vertex="1">
          <mxGeometry x="140" width="100" height="47" as="geometry">
            <mxRectangle width="100" height="47" as="alternateBounds" />
          </mxGeometry>
        </mxCell>
        <mxCell id="s0hgZ2dum6h8LIPwgXTJ-197" style="shape=tableRow;horizontal=0;startSize=0;swimlaneHead=0;swimlaneBody=0;top=0;left=0;bottom=0;right=0;dropTarget=0;collapsible=0;recursiveResize=0;expand=0;fontStyle=0;fillColor=none;strokeColor=inherit;" parent="s0hgZ2dum6h8LIPwgXTJ-192" vertex="1">
          <mxGeometry y="47" width="240" height="46" as="geometry" />
        </mxCell>
        <mxCell id="s0hgZ2dum6h8LIPwgXTJ-198" value="" style="connectable=0;recursiveResize=0;strokeColor=inherit;fillColor=none;align=center;whiteSpace=wrap;html=1;" parent="s0hgZ2dum6h8LIPwgXTJ-197" vertex="1">
          <mxGeometry width="60" height="46" as="geometry">
            <mxRectangle width="60" height="46" as="alternateBounds" />
          </mxGeometry>
        </mxCell>
        <mxCell id="s0hgZ2dum6h8LIPwgXTJ-199" value="" style="connectable=0;recursiveResize=0;strokeColor=inherit;fillColor=none;align=center;whiteSpace=wrap;html=1;" parent="s0hgZ2dum6h8LIPwgXTJ-197" vertex="1">
          <mxGeometry x="60" width="80" height="46" as="geometry">
            <mxRectangle width="80" height="46" as="alternateBounds" />
          </mxGeometry>
        </mxCell>
        <mxCell id="s0hgZ2dum6h8LIPwgXTJ-200" value="" style="connectable=0;recursiveResize=0;strokeColor=inherit;fillColor=none;align=center;whiteSpace=wrap;html=1;" parent="s0hgZ2dum6h8LIPwgXTJ-197" vertex="1">
          <mxGeometry x="140" width="100" height="46" as="geometry">
            <mxRectangle width="100" height="46" as="alternateBounds" />
          </mxGeometry>
        </mxCell>
        <mxCell id="s0hgZ2dum6h8LIPwgXTJ-201" style="shape=tableRow;horizontal=0;startSize=0;swimlaneHead=0;swimlaneBody=0;top=0;left=0;bottom=0;right=0;dropTarget=0;collapsible=0;recursiveResize=0;expand=0;fontStyle=0;fillColor=none;strokeColor=inherit;" parent="s0hgZ2dum6h8LIPwgXTJ-192" vertex="1">
          <mxGeometry y="93" width="240" height="47" as="geometry" />
        </mxCell>
        <mxCell id="s0hgZ2dum6h8LIPwgXTJ-202" value="" style="connectable=0;recursiveResize=0;strokeColor=inherit;fillColor=none;align=center;whiteSpace=wrap;html=1;" parent="s0hgZ2dum6h8LIPwgXTJ-201" vertex="1">
          <mxGeometry width="60" height="47" as="geometry">
            <mxRectangle width="60" height="47" as="alternateBounds" />
          </mxGeometry>
        </mxCell>
        <mxCell id="s0hgZ2dum6h8LIPwgXTJ-203" value="" style="connectable=0;recursiveResize=0;strokeColor=inherit;fillColor=none;align=center;whiteSpace=wrap;html=1;" parent="s0hgZ2dum6h8LIPwgXTJ-201" vertex="1">
          <mxGeometry x="60" width="80" height="47" as="geometry">
            <mxRectangle width="80" height="47" as="alternateBounds" />
          </mxGeometry>
        </mxCell>
        <mxCell id="s0hgZ2dum6h8LIPwgXTJ-204" value="" style="connectable=0;recursiveResize=0;strokeColor=inherit;fillColor=none;align=center;whiteSpace=wrap;html=1;" parent="s0hgZ2dum6h8LIPwgXTJ-201" vertex="1">
          <mxGeometry x="140" width="100" height="47" as="geometry">
            <mxRectangle width="100" height="47" as="alternateBounds" />
          </mxGeometry>
        </mxCell>
        <mxCell id="s0hgZ2dum6h8LIPwgXTJ-211" value="" style="childLayout=tableLayout;recursiveResize=0;shadow=0;fillColor=none;" parent="1" vertex="1">
          <mxGeometry x="400" y="560" width="180" height="140" as="geometry" />
        </mxCell>
        <mxCell id="s0hgZ2dum6h8LIPwgXTJ-212" value="" style="shape=tableRow;horizontal=0;startSize=0;swimlaneHead=0;swimlaneBody=0;top=0;left=0;bottom=0;right=0;dropTarget=0;collapsible=0;recursiveResize=0;expand=0;fontStyle=0;fillColor=none;strokeColor=inherit;" parent="s0hgZ2dum6h8LIPwgXTJ-211" vertex="1">
          <mxGeometry width="180" height="47" as="geometry" />
        </mxCell>
        <mxCell id="s0hgZ2dum6h8LIPwgXTJ-213" value="&lt;u&gt;collateralId&lt;/u&gt;" style="connectable=0;recursiveResize=0;strokeColor=inherit;fillColor=none;align=center;whiteSpace=wrap;html=1;" parent="s0hgZ2dum6h8LIPwgXTJ-212" vertex="1">
          <mxGeometry width="60" height="47" as="geometry">
            <mxRectangle width="60" height="47" as="alternateBounds" />
          </mxGeometry>
        </mxCell>
        <mxCell id="s0hgZ2dum6h8LIPwgXTJ-214" value="amount" style="connectable=0;recursiveResize=0;strokeColor=inherit;fillColor=none;align=center;whiteSpace=wrap;html=1;" parent="s0hgZ2dum6h8LIPwgXTJ-212" vertex="1">
          <mxGeometry x="60" width="60" height="47" as="geometry">
            <mxRectangle width="60" height="47" as="alternateBounds" />
          </mxGeometry>
        </mxCell>
        <mxCell id="s0hgZ2dum6h8LIPwgXTJ-215" value="userId" style="connectable=0;recursiveResize=0;strokeColor=inherit;fillColor=none;align=center;whiteSpace=wrap;html=1;" parent="s0hgZ2dum6h8LIPwgXTJ-212" vertex="1">
          <mxGeometry x="120" width="60" height="47" as="geometry">
            <mxRectangle width="60" height="47" as="alternateBounds" />
          </mxGeometry>
        </mxCell>
        <mxCell id="s0hgZ2dum6h8LIPwgXTJ-216" style="shape=tableRow;horizontal=0;startSize=0;swimlaneHead=0;swimlaneBody=0;top=0;left=0;bottom=0;right=0;dropTarget=0;collapsible=0;recursiveResize=0;expand=0;fontStyle=0;fillColor=none;strokeColor=inherit;" parent="s0hgZ2dum6h8LIPwgXTJ-211" vertex="1">
          <mxGeometry y="47" width="180" height="46" as="geometry" />
        </mxCell>
        <mxCell id="s0hgZ2dum6h8LIPwgXTJ-217" value="" style="connectable=0;recursiveResize=0;strokeColor=inherit;fillColor=none;align=center;whiteSpace=wrap;html=1;" parent="s0hgZ2dum6h8LIPwgXTJ-216" vertex="1">
          <mxGeometry width="60" height="46" as="geometry">
            <mxRectangle width="60" height="46" as="alternateBounds" />
          </mxGeometry>
        </mxCell>
        <mxCell id="s0hgZ2dum6h8LIPwgXTJ-218" value="" style="connectable=0;recursiveResize=0;strokeColor=inherit;fillColor=none;align=center;whiteSpace=wrap;html=1;" parent="s0hgZ2dum6h8LIPwgXTJ-216" vertex="1">
          <mxGeometry x="60" width="60" height="46" as="geometry">
            <mxRectangle width="60" height="46" as="alternateBounds" />
          </mxGeometry>
        </mxCell>
        <mxCell id="s0hgZ2dum6h8LIPwgXTJ-219" value="" style="connectable=0;recursiveResize=0;strokeColor=inherit;fillColor=none;align=center;whiteSpace=wrap;html=1;" parent="s0hgZ2dum6h8LIPwgXTJ-216" vertex="1">
          <mxGeometry x="120" width="60" height="46" as="geometry">
            <mxRectangle width="60" height="46" as="alternateBounds" />
          </mxGeometry>
        </mxCell>
        <mxCell id="s0hgZ2dum6h8LIPwgXTJ-220" style="shape=tableRow;horizontal=0;startSize=0;swimlaneHead=0;swimlaneBody=0;top=0;left=0;bottom=0;right=0;dropTarget=0;collapsible=0;recursiveResize=0;expand=0;fontStyle=0;fillColor=none;strokeColor=inherit;" parent="s0hgZ2dum6h8LIPwgXTJ-211" vertex="1">
          <mxGeometry y="93" width="180" height="47" as="geometry" />
        </mxCell>
        <mxCell id="s0hgZ2dum6h8LIPwgXTJ-221" value="" style="connectable=0;recursiveResize=0;strokeColor=inherit;fillColor=none;align=center;whiteSpace=wrap;html=1;" parent="s0hgZ2dum6h8LIPwgXTJ-220" vertex="1">
          <mxGeometry width="60" height="47" as="geometry">
            <mxRectangle width="60" height="47" as="alternateBounds" />
          </mxGeometry>
        </mxCell>
        <mxCell id="s0hgZ2dum6h8LIPwgXTJ-222" value="" style="connectable=0;recursiveResize=0;strokeColor=inherit;fillColor=none;align=center;whiteSpace=wrap;html=1;" parent="s0hgZ2dum6h8LIPwgXTJ-220" vertex="1">
          <mxGeometry x="60" width="60" height="47" as="geometry">
            <mxRectangle width="60" height="47" as="alternateBounds" />
          </mxGeometry>
        </mxCell>
        <mxCell id="s0hgZ2dum6h8LIPwgXTJ-223" value="" style="connectable=0;recursiveResize=0;strokeColor=inherit;fillColor=none;align=center;whiteSpace=wrap;html=1;" parent="s0hgZ2dum6h8LIPwgXTJ-220" vertex="1">
          <mxGeometry x="120" width="60" height="47" as="geometry">
            <mxRectangle width="60" height="47" as="alternateBounds" />
          </mxGeometry>
        </mxCell>
        <mxCell id="s0hgZ2dum6h8LIPwgXTJ-227" value="" style="childLayout=tableLayout;recursiveResize=0;shadow=0;fillColor=none;" parent="1" vertex="1">
          <mxGeometry x="680" y="560" width="180" height="140" as="geometry" />
        </mxCell>
        <mxCell id="s0hgZ2dum6h8LIPwgXTJ-228" value="" style="shape=tableRow;horizontal=0;startSize=0;swimlaneHead=0;swimlaneBody=0;top=0;left=0;bottom=0;right=0;dropTarget=0;collapsible=0;recursiveResize=0;expand=0;fontStyle=0;fillColor=none;strokeColor=inherit;" parent="s0hgZ2dum6h8LIPwgXTJ-227" vertex="1">
          <mxGeometry width="180" height="47" as="geometry" />
        </mxCell>
        <mxCell id="s0hgZ2dum6h8LIPwgXTJ-229" value="&lt;u&gt;metricId&lt;/u&gt;" style="connectable=0;recursiveResize=0;strokeColor=inherit;fillColor=none;align=center;whiteSpace=wrap;html=1;" parent="s0hgZ2dum6h8LIPwgXTJ-228" vertex="1">
          <mxGeometry width="60" height="47" as="geometry">
            <mxRectangle width="60" height="47" as="alternateBounds" />
          </mxGeometry>
        </mxCell>
        <mxCell id="s0hgZ2dum6h8LIPwgXTJ-230" value="type" style="connectable=0;recursiveResize=0;strokeColor=inherit;fillColor=none;align=center;whiteSpace=wrap;html=1;" parent="s0hgZ2dum6h8LIPwgXTJ-228" vertex="1">
          <mxGeometry x="60" width="60" height="47" as="geometry">
            <mxRectangle width="60" height="47" as="alternateBounds" />
          </mxGeometry>
        </mxCell>
        <mxCell id="s0hgZ2dum6h8LIPwgXTJ-231" value="value" style="connectable=0;recursiveResize=0;strokeColor=inherit;fillColor=none;align=center;whiteSpace=wrap;html=1;" parent="s0hgZ2dum6h8LIPwgXTJ-228" vertex="1">
          <mxGeometry x="120" width="60" height="47" as="geometry">
            <mxRectangle width="60" height="47" as="alternateBounds" />
          </mxGeometry>
        </mxCell>
        <mxCell id="s0hgZ2dum6h8LIPwgXTJ-232" style="shape=tableRow;horizontal=0;startSize=0;swimlaneHead=0;swimlaneBody=0;top=0;left=0;bottom=0;right=0;dropTarget=0;collapsible=0;recursiveResize=0;expand=0;fontStyle=0;fillColor=none;strokeColor=inherit;" parent="s0hgZ2dum6h8LIPwgXTJ-227" vertex="1">
          <mxGeometry y="47" width="180" height="46" as="geometry" />
        </mxCell>
        <mxCell id="s0hgZ2dum6h8LIPwgXTJ-233" value="" style="connectable=0;recursiveResize=0;strokeColor=inherit;fillColor=none;align=center;whiteSpace=wrap;html=1;" parent="s0hgZ2dum6h8LIPwgXTJ-232" vertex="1">
          <mxGeometry width="60" height="46" as="geometry">
            <mxRectangle width="60" height="46" as="alternateBounds" />
          </mxGeometry>
        </mxCell>
        <mxCell id="s0hgZ2dum6h8LIPwgXTJ-234" value="" style="connectable=0;recursiveResize=0;strokeColor=inherit;fillColor=none;align=center;whiteSpace=wrap;html=1;" parent="s0hgZ2dum6h8LIPwgXTJ-232" vertex="1">
          <mxGeometry x="60" width="60" height="46" as="geometry">
            <mxRectangle width="60" height="46" as="alternateBounds" />
          </mxGeometry>
        </mxCell>
        <mxCell id="s0hgZ2dum6h8LIPwgXTJ-235" value="" style="connectable=0;recursiveResize=0;strokeColor=inherit;fillColor=none;align=center;whiteSpace=wrap;html=1;" parent="s0hgZ2dum6h8LIPwgXTJ-232" vertex="1">
          <mxGeometry x="120" width="60" height="46" as="geometry">
            <mxRectangle width="60" height="46" as="alternateBounds" />
          </mxGeometry>
        </mxCell>
        <mxCell id="s0hgZ2dum6h8LIPwgXTJ-236" style="shape=tableRow;horizontal=0;startSize=0;swimlaneHead=0;swimlaneBody=0;top=0;left=0;bottom=0;right=0;dropTarget=0;collapsible=0;recursiveResize=0;expand=0;fontStyle=0;fillColor=none;strokeColor=inherit;" parent="s0hgZ2dum6h8LIPwgXTJ-227" vertex="1">
          <mxGeometry y="93" width="180" height="47" as="geometry" />
        </mxCell>
        <mxCell id="s0hgZ2dum6h8LIPwgXTJ-237" value="" style="connectable=0;recursiveResize=0;strokeColor=inherit;fillColor=none;align=center;whiteSpace=wrap;html=1;" parent="s0hgZ2dum6h8LIPwgXTJ-236" vertex="1">
          <mxGeometry width="60" height="47" as="geometry">
            <mxRectangle width="60" height="47" as="alternateBounds" />
          </mxGeometry>
        </mxCell>
        <mxCell id="s0hgZ2dum6h8LIPwgXTJ-238" value="" style="connectable=0;recursiveResize=0;strokeColor=inherit;fillColor=none;align=center;whiteSpace=wrap;html=1;" parent="s0hgZ2dum6h8LIPwgXTJ-236" vertex="1">
          <mxGeometry x="60" width="60" height="47" as="geometry">
            <mxRectangle width="60" height="47" as="alternateBounds" />
          </mxGeometry>
        </mxCell>
        <mxCell id="s0hgZ2dum6h8LIPwgXTJ-239" value="" style="connectable=0;recursiveResize=0;strokeColor=inherit;fillColor=none;align=center;whiteSpace=wrap;html=1;" parent="s0hgZ2dum6h8LIPwgXTJ-236" vertex="1">
          <mxGeometry x="120" width="60" height="47" as="geometry">
            <mxRectangle width="60" height="47" as="alternateBounds" />
          </mxGeometry>
        </mxCell>
        <mxCell id="s0hgZ2dum6h8LIPwgXTJ-240" value="&lt;font style=&quot;font-size: 18px;&quot;&gt;USER&lt;/font&gt;" style="text;html=1;strokeColor=none;fillColor=none;align=center;verticalAlign=middle;whiteSpace=wrap;rounded=0;" parent="1" vertex="1">
          <mxGeometry x="40" y="40" width="60" height="30" as="geometry" />
        </mxCell>
        <mxCell id="s0hgZ2dum6h8LIPwgXTJ-289" value="&lt;font style=&quot;font-size: 18px;&quot;&gt;ORDER&lt;/font&gt;" style="text;html=1;strokeColor=none;fillColor=none;align=center;verticalAlign=middle;whiteSpace=wrap;rounded=0;" parent="1" vertex="1">
          <mxGeometry x="370" y="40" width="60" height="30" as="geometry" />
        </mxCell>
        <mxCell id="s0hgZ2dum6h8LIPwgXTJ-291" value="&lt;font style=&quot;font-size: 18px;&quot;&gt;PORTFOLIO&lt;/font&gt;" style="text;html=1;strokeColor=none;fillColor=none;align=center;verticalAlign=middle;whiteSpace=wrap;rounded=0;" parent="1" vertex="1">
          <mxGeometry x="384" y="280" width="60" height="30" as="geometry" />
        </mxCell>
        <mxCell id="s0hgZ2dum6h8LIPwgXTJ-292" value="&lt;font style=&quot;font-size: 18px;&quot;&gt;COLLATERAL&lt;/font&gt;" style="text;html=1;strokeColor=none;fillColor=none;align=center;verticalAlign=middle;whiteSpace=wrap;rounded=0;" parent="1" vertex="1">
          <mxGeometry x="430" y="520" width="60" height="30" as="geometry" />
        </mxCell>
        <mxCell id="s0hgZ2dum6h8LIPwgXTJ-293" value="&lt;font style=&quot;font-size: 18px;&quot;&gt;LOGS&lt;/font&gt;" style="text;html=1;strokeColor=none;fillColor=none;align=center;verticalAlign=middle;whiteSpace=wrap;rounded=0;" parent="1" vertex="1">
          <mxGeometry x="40" y="520" width="60" height="30" as="geometry" />
        </mxCell>
        <mxCell id="s0hgZ2dum6h8LIPwgXTJ-294" value="&lt;font style=&quot;font-size: 18px;&quot;&gt;RISK METRIC&lt;/font&gt;" style="text;html=1;strokeColor=none;fillColor=none;align=center;verticalAlign=middle;whiteSpace=wrap;rounded=0;" parent="1" vertex="1">
          <mxGeometry x="630" y="520" width="230" height="30" as="geometry" />
        </mxCell>
        <mxCell id="s0hgZ2dum6h8LIPwgXTJ-295" value="&lt;font style=&quot;font-size: 18px;&quot;&gt;TRADES&lt;/font&gt;" style="text;html=1;strokeColor=none;fillColor=none;align=center;verticalAlign=middle;whiteSpace=wrap;rounded=0;" parent="1" vertex="1">
          <mxGeometry x="690" y="280" width="60" height="30" as="geometry" />
        </mxCell>
        <mxCell id="s0hgZ2dum6h8LIPwgXTJ-296" value="&lt;font style=&quot;font-size: 18px;&quot;&gt;FINANCIAL INSTRUMENT&lt;/font&gt;" style="text;html=1;strokeColor=none;fillColor=none;align=center;verticalAlign=middle;whiteSpace=wrap;rounded=0;" parent="1" vertex="1">
          <mxGeometry x="790" y="40" width="250" height="30" as="geometry" />
        </mxCell>
        <mxCell id="s0hgZ2dum6h8LIPwgXTJ-297" style="edgeStyle=orthogonalEdgeStyle;rounded=0;orthogonalLoop=1;jettySize=auto;html=1;exitX=0;exitY=0.5;exitDx=0;exitDy=0;" parent="1" source="s0hgZ2dum6h8LIPwgXTJ-168" edge="1">
          <mxGeometry relative="1" as="geometry">
            <mxPoint x="280" y="150" as="targetPoint" />
          </mxGeometry>
        </mxCell>
        <mxCell id="s0hgZ2dum6h8LIPwgXTJ-298" value="" style="connectable=0;recursiveResize=0;strokeColor=inherit;fillColor=none;align=center;whiteSpace=wrap;html=1;" parent="1" vertex="1">
          <mxGeometry x="600" y="173" width="60" height="47" as="geometry">
            <mxRectangle width="60" height="47" as="alternateBounds" />
          </mxGeometry>
        </mxCell>
        <mxCell id="s0hgZ2dum6h8LIPwgXTJ-299" value="" style="connectable=0;recursiveResize=0;strokeColor=inherit;fillColor=none;align=center;whiteSpace=wrap;html=1;" parent="1" vertex="1">
          <mxGeometry x="600" y="127" width="60" height="47" as="geometry">
            <mxRectangle width="60" height="47" as="alternateBounds" />
          </mxGeometry>
        </mxCell>
        <mxCell id="s0hgZ2dum6h8LIPwgXTJ-300" value="userId" style="connectable=0;recursiveResize=0;strokeColor=inherit;fillColor=none;align=center;whiteSpace=wrap;html=1;" parent="1" vertex="1">
          <mxGeometry x="600" y="80" width="60" height="47" as="geometry">
            <mxRectangle width="60" height="47" as="alternateBounds" />
          </mxGeometry>
        </mxCell>
        <mxCell id="s0hgZ2dum6h8LIPwgXTJ-302" style="edgeStyle=orthogonalEdgeStyle;rounded=0;orthogonalLoop=1;jettySize=auto;html=1;exitX=0;exitY=0.5;exitDx=0;exitDy=0;entryX=1;entryY=0.5;entryDx=0;entryDy=0;" parent="1" source="s0hgZ2dum6h8LIPwgXTJ-124" target="s0hgZ2dum6h8LIPwgXTJ-108" edge="1">
          <mxGeometry relative="1" as="geometry" />
        </mxCell>
        <mxCell id="s0hgZ2dum6h8LIPwgXTJ-303" value="" style="connectable=0;recursiveResize=0;strokeColor=inherit;fillColor=none;align=center;whiteSpace=wrap;html=1;" parent="1" vertex="1">
          <mxGeometry x="920" y="413" width="60" height="47" as="geometry">
            <mxRectangle width="60" height="47" as="alternateBounds" />
          </mxGeometry>
        </mxCell>
        <mxCell id="s0hgZ2dum6h8LIPwgXTJ-304" value="" style="connectable=0;recursiveResize=0;strokeColor=inherit;fillColor=none;align=center;whiteSpace=wrap;html=1;" parent="1" vertex="1">
          <mxGeometry x="920" y="366" width="60" height="47" as="geometry">
            <mxRectangle width="60" height="47" as="alternateBounds" />
          </mxGeometry>
        </mxCell>
        <mxCell id="s0hgZ2dum6h8LIPwgXTJ-305" value="portfolioId" style="connectable=0;recursiveResize=0;strokeColor=inherit;fillColor=none;align=center;whiteSpace=wrap;html=1;" parent="1" vertex="1">
          <mxGeometry x="920" y="320" width="60" height="47" as="geometry">
            <mxRectangle width="60" height="47" as="alternateBounds" />
          </mxGeometry>
        </mxCell>
        <mxCell id="FGbKXsMFoppz97pPF8bp-2" value="userId" style="connectable=0;recursiveResize=0;strokeColor=inherit;fillColor=none;align=center;whiteSpace=wrap;html=1;" parent="1" vertex="1">
          <mxGeometry x="280" y="560" width="60" height="47" as="geometry">
            <mxRectangle width="60" height="47" as="alternateBounds" />
          </mxGeometry>
        </mxCell>
        <mxCell id="FGbKXsMFoppz97pPF8bp-3" value="" style="connectable=0;recursiveResize=0;strokeColor=inherit;fillColor=none;align=center;whiteSpace=wrap;html=1;" parent="1" vertex="1">
          <mxGeometry x="280" y="607" width="60" height="47" as="geometry">
            <mxRectangle width="60" height="47" as="alternateBounds" />
          </mxGeometry>
        </mxCell>
        <mxCell id="FGbKXsMFoppz97pPF8bp-4" value="" style="connectable=0;recursiveResize=0;strokeColor=inherit;fillColor=none;align=center;whiteSpace=wrap;html=1;" parent="1" vertex="1">
          <mxGeometry x="280" y="653" width="60" height="47" as="geometry">
            <mxRectangle width="60" height="47" as="alternateBounds" />
          </mxGeometry>
        </mxCell>
        <mxCell id="FGbKXsMFoppz97pPF8bp-12" value="" style="connectable=0;recursiveResize=0;strokeColor=inherit;fillColor=none;align=center;whiteSpace=wrap;html=1;" parent="1" vertex="1">
          <mxGeometry x="660" y="173" width="70" height="47" as="geometry">
            <mxRectangle width="60" height="47" as="alternateBounds" />
          </mxGeometry>
        </mxCell>
        <mxCell id="FGbKXsMFoppz97pPF8bp-13" value="" style="connectable=0;recursiveResize=0;strokeColor=inherit;fillColor=none;align=center;whiteSpace=wrap;html=1;" parent="1" vertex="1">
          <mxGeometry x="660" y="127" width="70" height="47" as="geometry">
            <mxRectangle width="60" height="47" as="alternateBounds" />
          </mxGeometry>
        </mxCell>
        <mxCell id="FGbKXsMFoppz97pPF8bp-14" value="instrumentId" style="connectable=0;recursiveResize=0;strokeColor=inherit;fillColor=none;align=center;whiteSpace=wrap;html=1;" parent="1" vertex="1">
          <mxGeometry x="660" y="80" width="70" height="47" as="geometry">
            <mxRectangle width="60" height="47" as="alternateBounds" />
          </mxGeometry>
        </mxCell>
        <mxCell id="FGbKXsMFoppz97pPF8bp-19" style="edgeStyle=orthogonalEdgeStyle;rounded=0;orthogonalLoop=1;jettySize=auto;html=1;exitX=0;exitY=0.5;exitDx=0;exitDy=0;" parent="1" source="s0hgZ2dum6h8LIPwgXTJ-232" edge="1">
          <mxGeometry relative="1" as="geometry">
            <mxPoint x="540" y="436" as="targetPoint" />
            <Array as="points">
              <mxPoint x="630" y="630" />
              <mxPoint x="630" y="436" />
            </Array>
          </mxGeometry>
        </mxCell>
        <mxCell id="FGbKXsMFoppz97pPF8bp-20" value="portfolioId" style="connectable=0;recursiveResize=0;strokeColor=inherit;fillColor=none;align=center;whiteSpace=wrap;html=1;" parent="1" vertex="1">
          <mxGeometry x="860" y="560" width="60" height="47" as="geometry">
            <mxRectangle width="60" height="47" as="alternateBounds" />
          </mxGeometry>
        </mxCell>
        <mxCell id="FGbKXsMFoppz97pPF8bp-21" value="" style="connectable=0;recursiveResize=0;strokeColor=inherit;fillColor=none;align=center;whiteSpace=wrap;html=1;" parent="1" vertex="1">
          <mxGeometry x="860" y="607" width="60" height="47" as="geometry">
            <mxRectangle width="60" height="47" as="alternateBounds" />
          </mxGeometry>
        </mxCell>
        <mxCell id="FGbKXsMFoppz97pPF8bp-22" value="" style="connectable=0;recursiveResize=0;strokeColor=inherit;fillColor=none;align=center;whiteSpace=wrap;html=1;" parent="1" vertex="1">
          <mxGeometry x="860" y="653" width="60" height="47" as="geometry">
            <mxRectangle width="60" height="47" as="alternateBounds" />
          </mxGeometry>
        </mxCell>
        <mxCell id="kpi0srUkysOHhf9DZEo0-1" style="edgeStyle=orthogonalEdgeStyle;rounded=0;orthogonalLoop=1;jettySize=auto;html=1;exitX=0.75;exitY=0;exitDx=0;exitDy=0;entryX=0;entryY=0.75;entryDx=0;entryDy=0;" edge="1" parent="1" source="s0hgZ2dum6h8LIPwgXTJ-212" target="s0hgZ2dum6h8LIPwgXTJ-145">
          <mxGeometry relative="1" as="geometry">
            <mxPoint x="370" y="489.9999999999998" as="targetPoint" />
            <Array as="points">
              <mxPoint x="535" y="480" />
              <mxPoint x="20" y="480" />
              <mxPoint x="20" y="115" />
            </Array>
          </mxGeometry>
        </mxCell>
        <mxCell id="kpi0srUkysOHhf9DZEo0-3" style="edgeStyle=orthogonalEdgeStyle;rounded=0;orthogonalLoop=1;jettySize=auto;html=1;exitX=1;exitY=0;exitDx=0;exitDy=0;entryX=0;entryY=0.25;entryDx=0;entryDy=0;" edge="1" parent="1" source="s0hgZ2dum6h8LIPwgXTJ-193" target="s0hgZ2dum6h8LIPwgXTJ-145">
          <mxGeometry relative="1" as="geometry">
            <Array as="points">
              <mxPoint x="280" y="500" />
              <mxPoint x="10" y="500" />
              <mxPoint x="10" y="92" />
            </Array>
          </mxGeometry>
        </mxCell>
        <mxCell id="kpi0srUkysOHhf9DZEo0-4" style="edgeStyle=orthogonalEdgeStyle;rounded=0;orthogonalLoop=1;jettySize=auto;html=1;exitX=0.75;exitY=0;exitDx=0;exitDy=0;entryX=0.25;entryY=0;entryDx=0;entryDy=0;" edge="1" parent="1" source="s0hgZ2dum6h8LIPwgXTJ-104" target="s0hgZ2dum6h8LIPwgXTJ-145">
          <mxGeometry relative="1" as="geometry">
            <Array as="points">
              <mxPoint x="495" y="310" />
              <mxPoint x="320" y="310" />
              <mxPoint x="320" y="70" />
              <mxPoint x="85" y="70" />
            </Array>
          </mxGeometry>
        </mxCell>
        <mxCell id="kpi0srUkysOHhf9DZEo0-6" style="edgeStyle=orthogonalEdgeStyle;rounded=0;orthogonalLoop=1;jettySize=auto;html=1;exitX=1;exitY=0;exitDx=0;exitDy=0;entryX=0;entryY=0.25;entryDx=0;entryDy=0;" edge="1" parent="1" source="s0hgZ2dum6h8LIPwgXTJ-164" target="s0hgZ2dum6h8LIPwgXTJ-180">
          <mxGeometry relative="1" as="geometry">
            <Array as="points">
              <mxPoint x="690" y="80" />
              <mxPoint x="690" y="60" />
              <mxPoint x="780" y="60" />
              <mxPoint x="780" y="92" />
            </Array>
          </mxGeometry>
        </mxCell>
      </root>
    </mxGraphModel>
  </diagram>
</mxfile>
